<?xml version="1.0" standalone="no"?><!DOCTYPE svg PUBLIC "-//W3C//DTD SVG 1.1//EN" "http://www.w3.org/Graphics/SVG/1.1/DTD/svg11.dtd"><svg t="1513147245730" class="icon" style="" viewBox="0 0 1024 1024" version="1.1" xmlns="http://www.w3.org/2000/svg" p-id="1584" xmlns:xlink="http://www.w3.org/1999/xlink" width="200" height="200"><defs><style type="text/css"></style></defs><path d="M298.120533 215.278933L219.374933 48.9472A34.133333 34.133333 0 0 1 254.634667 0.477867l258.628266 34.030933 255.931734-33.928533a34.133333 34.133333 0 0 1 35.328 48.469333l-78.711467 166.229333C852.992 284.603733 989.832533 420.864 989.866667 685.943467h-0.034134S1003.690667 1024 512 1024C20.343467 1024 34.167467 685.9776 34.167467 685.9776c0-265.079467 136.772267-401.3056 263.953066-470.698667z m182.510934 662.254934h62.737066v-103.901867h124.177067v-51.268267h-124.177067v-72.533333h124.177067v-50.619733h-107.008l0.512-0.887467 134.7584-233.472h-66.798933l-76.424534 143.428267c-20.309333 38.741333-32.904533 64.853333-37.444266 77.585066l-0.136534 0.4096h-2.048l-0.170666-0.341333c-13.4144-31.061333-51.712-105.437867-113.8688-221.047467H328.192l133.9392 234.325334H351.914667v50.619733h128.750933v72.533333H351.914667v51.268267h128.682666v103.901867z" p-id="1585"></path></svg>