<?xml version="1.0" standalone="no"?><!DOCTYPE svg PUBLIC "-//W3C//DTD SVG 1.1//EN" "http://www.w3.org/Graphics/SVG/1.1/DTD/svg11.dtd"><svg t="1513044796884" class="icon" style="" viewBox="0 0 1194 1024" version="1.1" xmlns="http://www.w3.org/2000/svg" p-id="1699" xmlns:xlink="http://www.w3.org/1999/xlink" width="233.203125" height="200"><defs><style type="text/css"></style></defs><path d="M653.687467 648.430933a136.533333 136.533333 0 0 0 0-272.861866v272.861866z m0-341.162666a204.8 204.8 0 0 1 0 409.463466v223.402667a68.266667 68.266667 0 0 1-68.266667 68.266667h-42.666667a68.266667 68.266667 0 0 1-47.581866-19.3536L251.904 752.366933H92.501333a68.266667 68.266667 0 0 1-68.266666-68.266666V339.968a68.266667 68.266667 0 0 1 68.266666-68.266667h146.8416L496.298667 33.245867a68.266667 68.266667 0 0 1 46.421333-18.2272h42.666667a68.266667 68.266667 0 0 1 68.266666 68.266666v223.982934z m320.9216 517.3248l197.597866 98.816-30.549333 61.064533-197.597867-98.816 30.549334-61.064533z m0-625.186134l-30.549334-61.098666 197.632-98.781867 30.5152 61.098667-197.632 98.781866zM955.733333 529.066667v-68.266667h204.8v68.266667h-204.8zM92.501333 339.968v344.132267h187.153067l263.133867 256h42.666666V83.285333h-42.666666L266.1376 339.968H92.535467z" p-id="1700"></path></svg>