<?xml version="1.0" standalone="no"?><!DOCTYPE svg PUBLIC "-//W3C//DTD SVG 1.1//EN" "http://www.w3.org/Graphics/SVG/1.1/DTD/svg11.dtd"><svg t="1517221805771" class="icon" style="" viewBox="0 0 1024 1024" version="1.1" xmlns="http://www.w3.org/2000/svg" p-id="561" xmlns:xlink="http://www.w3.org/1999/xlink" width="200" height="200"><defs><style type="text/css"></style></defs><g id="Page-1" stroke="none" stroke-width="1" fill="none" fill-rule="evenodd" opacity="0.1"><path d="M478.571355 551.622194l-198.06142-196.31071a29.134452 29.134452 0 0 0-41.092129 0 28.556387 28.556387 0 0 0 0 40.827871L497.796129 652.403613c6.011871 6.061419 14.088258 8.571871 22.049032 8.208516a29.266581 29.266581 0 0 0 22.049033-8.208516L800.388129 396.139355a28.771097 28.771097 0 0 0 0-40.827871 29.134452 29.134452 0 0 0-41.092129 0l-214.660129 212.876387L544.635871 214.709677a33.032258 33.032258 0 1 0-66.064516 0L478.571355 551.622194zM128.891871 1024c-70.57341901 0-127.83483899-57.327484-127.834839-128l0-767.867871c0-70.672516 57.261419-128 127.834839-128L895.768774 0.132129c70.57341901 0 127.83483899 57.327484 127.834839 128L1023.603613 896C1023.603613 966.672516 966.342194 1024 895.768774 1024l-766.876903 0zM759.345548 809.290323a33.032258 33.032258 0 1 0 0-66.064517l-495.483871 0a33.032258 33.032258 0 1 0 0 66.064517l495.483871 0z" fill="#000000" p-id="562"></path></g></svg>