<?xml version="1.0" encoding="UTF-8"?>
<svg width="23px" height="23px" viewBox="0 0 23 23" version="1.1" xmlns="http://www.w3.org/2000/svg" xmlns:xlink="http://www.w3.org/1999/xlink">
    <!-- Generator: Sketch 46.2 (44496) - http://www.bohemiancoding.com/sketch -->
    <title>Group1</title>
    <desc>Created with Sketch.</desc>
    <defs></defs>
    <g id="Page-1" stroke="none" stroke-width="1" fill="none" fill-rule="evenodd">
        <g id="注册" transform="translate(-20.000000, -1031.000000)">
            <g id="Group-2" transform="translate(20.000000, 990.000000)">
                <g id="Group1" transform="translate(0.000000, 41.000000)">
                    <path d="M9.29289322,14.5355339 L6.1109127,11.3535534 C5.52512627,10.767767 4.5753788,10.767767 3.98959236,11.3535534 C3.40380592,11.9393398 3.40380592,12.8890873 3.98959236,13.4748737 L7.87867966,17.363961 L9.29289322,18.7781746 L18.8388348,9.23223305 C19.4246212,8.64644661 19.4246212,7.69669914 18.8388348,7.1109127 C18.2530483,6.52512627 17.3033009,6.52512627 16.7175144,7.1109127 L9.29289322,14.5355339 Z M4,0 L19,0 C21.209139,-4.05812251e-16 23,1.790861 23,4 L23,19 C23,21.209139 21.209139,23 19,23 L4,23 C1.790861,23 2.705415e-16,21.209139 0,19 L0,4 L0,4 C-2.705415e-16,1.790861 1.790861,4.05812251e-16 4,0 L4,0 Z" id="Combined-Shape" fill="#FFFFFF"></path>
                    <path d="M4,2 C2.8954305,2 2,2.8954305 2,4 L2,19 C2,20.1045695 2.8954305,21 4,21 L19,21 C20.1045695,21 21,20.1045695 21,19 L21,4 C21,2.8954305 20.1045695,2 19,2 L4,2 Z M4,0 L19,0 C21.209139,-4.05812251e-16 23,1.790861 23,4 L23,19 C23,21.209139 21.209139,23 19,23 L4,23 C1.790861,23 2.705415e-16,21.209139 0,19 L0,4 C-2.705415e-16,1.790861 1.790861,4.05812251e-16 4,0 Z" id="Rectangle-4" fill="#C7C7C7" fill-rule="nonzero"></path>
                </g>
            </g>
        </g>
    </g>
</svg>
