<?xml version="1.0" encoding="UTF-8"?>
<svg width="70px" height="69px" viewBox="0 0 70 69" version="1.1" xmlns="http://www.w3.org/2000/svg" xmlns:xlink="http://www.w3.org/1999/xlink">
    <!-- Generator: Sketch 46.2 (44496) - http://www.bohemiancoding.com/sketch -->
    <title>gift</title>
    <desc>Created with Sketch.</desc>
    <defs></defs>
    <g id="Page-1" stroke="none" stroke-width="1" fill="none" fill-rule="evenodd">
        <g id="首页" transform="translate(-340.000000, -244.000000)" fill-rule="nonzero" fill="#D8D8D8">
            <g id="活动" transform="translate(251.000000, 244.000000)">
                <path d="M116.999985,38.8629099 L98.3333024,38.8629099 C95.7560141,38.8629099 93.6665739,40.9388898 93.6665739,43.4993853 L93.6665739,64.3636783 C93.6665739,66.921792 95.7559368,69 98.3333024,69 L116.999985,69 C119.577041,69 121.666558,66.9218688 121.666558,64.3636783 L121.666558,43.4994622 C121.666558,40.9388898 119.577041,38.8629099 116.999985,38.8629099 Z M154.333271,18 L131.000015,18 C128.422882,18 126.333287,20.0759799 126.333287,22.6363217 L126.333287,31.9088883 C126.333287,34.4690765 128.422959,36.5449796 131.000015,36.5449796 L154.333271,36.5449796 C156.910637,36.5449796 159,34.4690765 159,31.9088883 L159,22.6363217 C159.000077,20.0759799 156.910637,18 154.333271,18 L154.333271,18 Z M149.666698,38.8629099 L131.000093,38.8629099 C128.422959,38.8629099 126.333364,40.9388898 126.333364,43.4993853 L126.333364,64.3636783 C126.333364,66.921792 128.423037,69 131.000093,69 L149.666698,69 C152.243831,69 154.333426,66.9218688 154.333426,64.3636783 L154.333426,43.4994622 C154.333194,40.9388898 152.243831,38.8629099 149.666698,38.8629099 Z M116.999985,18 L117.000062,18 C119.577118,18 121.666558,20.0759799 121.66679,22.6363217 L121.66679,31.9088883 C121.66679,34.4690765 119.577273,36.5449796 117.000217,36.5449796 L93.6667285,36.5449796 C91.0895176,36.5449796 89,34.4690765 89,31.9088883 L89,22.6363217 C89,20.0759799 91.0894403,18 93.6667285,18 L116.999985,18 Z M152.998944,8.19991157 L152.998944,8.19998755 C153.150011,18.9449008 137.061321,17.3329929 127.04424,16.1400169 C124.294407,11.4144584 130.986915,1.82460902 139.792892,0.244079189 C143.231466,-0.372618433 149.038162,1.2044165 150.63626,2.82179471 C152.380608,4.40323626 152.721909,6.67438841 152.998944,8.19991157 Z M120.983511,16.0325868 L120.983511,16.0325868 C110.948323,17.2256387 94.8387289,18.8372428 95.0012198,8.09240546 C95.2714161,6.56695827 95.6125614,4.29588209 97.3572202,2.7142886 C98.9645661,1.09706234 104.768698,-0.479972595 108.221337,0.136725027 C117.03625,1.71725486 123.735597,11.3069523 120.983511,16.0325868 Z" id="gift"></path>
            </g>
        </g>
    </g>
</svg>