<?xml version="1.0" standalone="no"?><!DOCTYPE svg PUBLIC "-//W3C//DTD SVG 1.1//EN" "http://www.w3.org/Graphics/SVG/1.1/DTD/svg11.dtd"><svg t="1513844600713" class="icon" style="" viewBox="0 0 1024 1024" version="1.1" xmlns="http://www.w3.org/2000/svg" p-id="1281" xmlns:xlink="http://www.w3.org/1999/xlink" width="200" height="200"><defs><style type="text/css"></style></defs><path d="M944.327111 382.748444v482.986667a78.592 78.592 0 0 1-78.592 78.563556H158.094222a78.563556 78.563556 0 0 1-78.592-78.563556V158.037333a78.563556 78.563556 0 0 1 78.592-78.563555h489.187556C664.661333 53.646222 683.633778 25.628444 700.586667 0.853333H93.752889A92.871111 92.871111 0 0 0 0.853333 93.724444v836.323556a92.871111 92.871111 0 0 0 92.871111 92.871111h836.323556a92.871111 92.871111 0 0 0 92.871111-92.871111V324.408889l-78.620444 58.339555z" p-id="1282"></path><path d="M628.764444 578.503111l-170.581333-162.872889L811.036444 46.023111l170.609778 162.844445-352.881778 369.635555z m-212.536888 51.825778l204.458666-43.349333-170.609778-162.872889-33.848888 206.222222zM1010.090667 93.639111l-85.333334-81.408c-23.552-22.499556-71.424-10.552889-106.951111 26.652445l170.609778 162.872888c35.527111-37.233778 45.226667-85.617778 21.674667-108.088888z" p-id="1283"></path></svg>