<?xml version="1.0" standalone="no"?><!DOCTYPE svg PUBLIC "-//W3C//DTD SVG 1.1//EN" "http://www.w3.org/Graphics/SVG/1.1/DTD/svg11.dtd"><svg t="1513152924567" class="icon" style="" viewBox="0 0 1170 1024" version="1.1" xmlns="http://www.w3.org/2000/svg" p-id="1376" xmlns:xlink="http://www.w3.org/1999/xlink" width="228.515625" height="200"><defs><style type="text/css"></style></defs><path d="M1018.368 356.425c12.361 22.82-14.702-40.448-62.61-40.448l-741.23 0.293c-27.648 0-46.811 13.677-62.903 38.839C135.534 380.343 0 589.385 0 633.637v284.086a80.457 80.457 0 0 0 80.677 80.165h1008.64a80.457 80.457 0 0 0 80.676-80.165V633.637c0-44.252-151.625-277.212-151.625-277.212s-21.723-40.448 0 0zM753.591 611.694a37.595 37.595 0 0 0-38.254 28.013c0 2.048 0.293 4.096 0.293 6.144a131.145 131.145 0 0 1-262.364 0c0-2.633 0.293-5.193 0.44-7.826-9.363-26.185-37.304-26.331-37.304-26.331H69.925l117.32-216.064s21.505-38.766 51.786-37.596h698.807c24.356 0 28.525 8.777 46.08 37.596l119.223 216.21H753.664zM332.434 202.386l-89.16-84.626a23.845 23.845 0 1 1 32.913-34.597l89.088 84.627a23.845 23.845 0 0 1-32.84 34.596m245.613-37.376a23.771 23.771 0 0 1-7.387-16.676l-3.219-122.88a23.845 23.845 0 0 1 47.763-1.244l3.145 122.88a23.845 23.845 0 0 1-40.229 17.92m231.132 32.988a23.845 23.845 0 0 1-0.878-33.72L893 75.046a23.845 23.845 0 0 1 34.597 32.914L842.97 197.12a23.845 23.845 0 0 1-33.718 0.878" p-id="1377"></path></svg>