<?xml version="1.0" encoding="UTF-8"?>
<svg width="61px" height="61px" viewBox="0 0 61 61" version="1.1" xmlns="http://www.w3.org/2000/svg" xmlns:xlink="http://www.w3.org/1999/xlink">
    <!-- Generator: Sketch 46.2 (44496) - http://www.bohemiancoding.com/sketch -->
    <title>圈子</title>
    <desc>Created with Sketch.</desc>
    <defs></defs>
    <g id="Page-1" stroke="none" stroke-width="1" fill="none" fill-rule="evenodd">
        <g id="首页" transform="translate(-596.000000, -790.000000)" fill-rule="nonzero" fill="#01CC9B">
            <g id="圈子" transform="translate(596.000000, 790.000000)">
                <path d="M59.9765333,38.2707222 C59.1699749,35.6172222 57.5704137,32.8823889 55.3981282,30.1882222 C57.5297469,27.5448889 59.1089747,24.8575 59.9324777,22.2548333 C61.3407479,27.4986522 61.3559337,33.0192352 59.9765333,38.2707222 Z M13.0470331,52.6802778 C14.7596291,52.6675661 16.4680797,52.5099857 18.1541068,52.2092222 C19.2792219,55.2761666 20.6856158,57.9228889 22.3732885,59.9426667 C17.4419607,58.5570858 12.9440016,55.9401855 9.30229753,52.338 C10.4748573,52.5650556 11.7253617,52.6802778 13.0470331,52.6802778 L13.0470331,52.6802778 Z M56.8926335,45.6923889 C51.5212255,55.1338333 41.4866898,61 30.703207,61 C29.98476,61 29.2697019,60.9661111 28.5580327,60.9186667 C25.1792985,59.7020556 22.9053459,55.8590556 21.5192854,52.5345556 C21.3874513,52.2158624 21.260915,51.8950034 21.1397285,51.5721111 C32.414602,48.8440555 45.6279268,41.0801111 53.5308438,32.5265556 C54.4085691,33.6448889 55.1744607,34.7733889 55.8115741,35.8951111 C58.0177486,39.772 58.380361,43.0693889 56.8892446,45.689 L56.8926335,45.6923889 Z M18.2794962,8.70944442 C16.5583183,8.39624191 14.813366,8.2318383 13.0639776,8.21805558 C11.7355285,8.21805558 10.4782462,8.33666669 9.30229753,8.5671111 C11.1063741,6.79108341 13.1234319,5.24528498 15.30743,3.965 C17.6383882,2.60182294 20.1412729,1.55667856 22.7494565,0.857388896 C20.953339,2.86022221 19.4622226,5.551 18.2761072,8.70944442 L18.2794962,8.70944442 Z M21.1431174,9.455 C23.3255696,3.81927779 26.5077476,0.0101666865 30.6218734,0 C31.2657646,0 31.899489,0.023722209 32.5332135,0.0643888955 L32.6992697,0.077944418 C38.5605348,0.506007321 44.1682384,2.64069698 48.8304382,6.2186111 L49.3523289,6.63205558 C49.8620309,7.04409039 50.3592922,7.47128147 50.8434453,7.91305558 C53.002631,9.89542026 54.8683328,12.1753339 56.3842984,14.6840556 C56.4215763,14.7450556 56.462243,14.8026667 56.4961321,14.8636667 C56.6249104,15.0805556 56.7469108,15.3042223 56.8689112,15.5211111 C58.2244716,18.1102222 57.8415257,21.3296667 55.6929626,25.1048889 C55.0558492,26.2232222 54.2865687,27.3517222 53.4122323,28.4734444 C45.5364264,19.9503888 32.3908797,12.2067777 21.1431174,9.4516111 L21.1431174,9.455 Z M12.9250326,49.9556111 C9.33957545,49.9556111 6.7063994,49.0609444 5.03906015,47.3258333 C1.63170101,42.0770337 -0.12146967,35.9262008 0.00654224609,29.6697222 C0.0167089688,29.402 0.0234867243,29.1342778 0.0404312622,28.8665556 L0.0472090177,28.6903333 C0.409362304,23.396287 2.1069252,18.2802984 4.98144884,13.8198889 C6.64539918,12.0407222 9.29890862,11.1257222 12.9250326,11.1257222 C14.2907597,11.1257222 15.7378204,11.2578889 17.2424925,11.4985 C13.8569804,22.7292778 13.8264803,38.2944444 17.1476032,49.6031667 C15.7500704,49.8288276 14.33725,49.9466566 12.9216437,49.9556111 L12.9250326,49.9556111 Z" id="Shape"></path>
            </g>
        </g>
    </g>
</svg>