<?xml version="1.0" encoding="UTF-8"?>
<svg width="38px" height="33px" viewBox="0 0 38 33" version="1.1" xmlns="http://www.w3.org/2000/svg" xmlns:xlink="http://www.w3.org/1999/xlink">
    <!-- Generator: Sketch 46.2 (44496) - http://www.bohemiancoding.com/sketch -->
    <title>Combined Shape</title>
    <desc>Created with Sketch.</desc>
    <defs></defs>
    <g id="Page-1" stroke="none" stroke-width="1" fill="none" fill-rule="evenodd">
        <g id="首页-下拉" transform="translate(-453.000000, -252.000000)" fill="#818181">
            <path d="M468,284.580251 L459,284.580251 L459,270.839993 L453,270.839993 L470.585865,253.252174 L470.585708,253.252017 C471.366713,252.470925 472.633043,252.470854 473.414135,253.25186 C473.414187,253.251912 473.41424,253.251964 473.414292,253.252017 L473.414135,253.252174 L491,270.839993 L485,270.839993 L485,284.580251 L476,284.580251 C476,280.819968 476,278.566312 476,277.819282 C476,275.709951 474.209139,274 472,274 C469.790861,274 468,275.709951 468,277.819282 C468,278.574694 468,280.828351 468,284.580251 Z M479.3125,253.509204 L485.25,253.509204 L485.25,262.714201 L479.3125,256.776041 L479.3125,253.509204 Z" id="Combined-Shape"></path>
        </g>
    </g>
</svg>