<?xml version="1.0" encoding="UTF-8"?>
<svg width="39px" height="36px" viewBox="0 0 39 36" version="1.1" xmlns="http://www.w3.org/2000/svg" xmlns:xlink="http://www.w3.org/1999/xlink">
    <!-- Generator: Sketch 46.2 (44496) - http://www.bohemiancoding.com/sketch -->
    <title>退出</title>
    <desc>Created with Sketch.</desc>
    <defs></defs>
    <g id="Page-1" stroke="none" stroke-width="1" fill="none" fill-rule="evenodd">
        <g id="首页-下拉" transform="translate(-461.000000, -706.000000)" fill-rule="nonzero" fill="#818181">
            <g id="退出" transform="translate(461.000000, 706.000000)">
                <path d="M28.1486486,13.6216216 L28.1486486,10.0604062 C28.1486486,9.5136443 28.5918867,9.0704062 29.1386486,9.0704062 C29.3573285,9.0704062 29.5698548,9.14281036 29.7430514,9.27631611 L37.8341534,15.5132072 C38.2671944,15.8470096 38.3476431,16.4686591 38.0138407,16.9017001 C37.9619127,16.9690662 37.9015195,17.0294594 37.8341534,17.0813874 L29.7430514,23.3182785 C29.3100104,23.6520809 28.688361,23.5716322 28.3545586,23.1385912 C28.2210528,22.9653945 28.1486486,22.7528682 28.1486486,22.5341884 L28.1486486,18.4864865 L18,18.4864865 L18,13.6216216 L28.1486486,13.6216216 Z M26.9239997,8.75675676 L23.9994159,8.75675676 L23.9994159,4.8341014 C23.9994159,3.7405776 23.1129397,2.8541014 22.0194159,2.8541014 L22.0194159,2.8541014 L4.31047707,2.8541014 C3.79818861,2.8541014 3.38436238,2.89790397 3,3.17068094 L14.6944298,5.21508451 L14.6944298,30.1621622 L22.0194159,30.1621622 C23.1129397,30.1621622 23.9994159,29.275686 23.9994159,28.1821622 L23.9994159,24.3243243 L26.9239997,24.3243243 L26.9239997,30.7060151 C26.9239997,31.9992944 25.9128454,33.1445049 24.596103,33.1445049 L14.6759033,33.1445049 L14.6759033,35.4863416 L0,33.1445049 L7.81597009e-13,31.3163265 L7.81597009e-13,2.34183673 L7.81597009e-13,1.73354464 C0.273601073,0.737093112 1.19096938,0 2.29252664,0 L24.5396766,0 C25.856419,0 26.9239997,1.0485574 26.9239997,2.34183673 L26.9239997,8.75675676 Z" id="Combined-Shape"></path>
            </g>
        </g>
    </g>
</svg>