<?xml version="1.0" encoding="UTF-8"?>
<svg width="28px" height="29px" viewBox="0 0 28 29" version="1.1" xmlns="http://www.w3.org/2000/svg" xmlns:xlink="http://www.w3.org/1999/xlink">
    <!-- Generator: Sketch 46.2 (44496) - http://www.bohemiancoding.com/sketch -->
    <title>Combined Shape</title>
    <desc>Created with Sketch.</desc>
    <defs></defs>
    <g id="Page-1" stroke="none" stroke-width="1" fill="none" fill-rule="evenodd">
        <g id="我的牌友圈" transform="translate(-107.000000, -609.000000)" fill-rule="nonzero" fill="#8EA3DF">
            <g id="Group-2" transform="translate(107.000000, 609.000000)">
                <path d="M13.9273356,16 C21.6297578,16 27.9757785,20.2675522 28,25.5464896 C28,27.3472486 26.8131488,28.0132827 23.3737024,28.5806452 C20.9273356,29 17.4878893,29 14,29 C10.5847751,29 7.38754325,29 4.67474048,28.5806452 C1.18685121,28.0379507 0,27.3472486 0,25.5464896 C0,20.2675522 6.24913495,16 13.9273356,16 Z M6,7.5 L6,7.5 C6,3.35786438 9.35786438,0 13.5,0 C17.6421356,0 21,3.35786438 21,7.5 C21,11.6421356 17.6421356,15 13.5,15 C9.35786438,15 6,11.6421356 6,7.5 Z" id="Combined-Shape"></path>
            </g>
        </g>
    </g>
</svg>