<?xml version="1.0" standalone="no"?><!DOCTYPE svg PUBLIC "-//W3C//DTD SVG 1.1//EN" "http://www.w3.org/Graphics/SVG/1.1/DTD/svg11.dtd"><svg t="1513740896637" class="icon" style="" viewBox="0 0 1121 1024" version="1.1" xmlns="http://www.w3.org/2000/svg" p-id="1281" xmlns:xlink="http://www.w3.org/1999/xlink" width="218.9453125" height="200"><defs><style type="text/css"></style></defs><path d="M422.950343 1024H200.451149c-35.400924 0-58.855255-25.453557-58.855254-64.219031 0-290.960485 0-255.900892-0.146285-352.400104 0-21.60139 7.411764-38.911759 22.771668-52.516247 121.904007-108.494566 243.710491-217.184179 365.663261-325.727507 24.429563-21.747675 51.443491-21.747675 75.873054-0.146285 122.099054 108.738374 244.051823 217.574272 366.199638 326.215124 14.823527 13.263156 22.235291 30.037147 22.235291 51.150921v354.643138c0 36.668725-23.941947 62.804945-57.343645 62.804945h-224.010804v-240.053372c0-24.234517-10.434983-41.301078-29.305724-47.103708a53.150147 53.150147 0 0 0-15.701236-2.047987 38096.903972 38096.903972 0 0 0-199.678764 0c-28.671823 0-45.055721 18.285601-45.055721 49.88312v228.545632c-0.146285 3.462074-0.146285 6.826624-0.146285 10.971361zM14.084303 437.300394c82.74844-71.289463 165.301834-142.578927 247.806466-214.063437L481.56179 33.408037c51.492253-44.665628 113.614535-44.470582 165.106788 0.146285 154.964374 134.094408 290.180299 256.827362 444.803341 391.21434 5.607584 4.87616 9.459751 8.386996 9.459751 8.386996 1.170278 1.560371 7.265479 6.972909 8.289473 8.338234 0.682662 1.072755 0.146285-0.146285 3.900928 9.264704l5.217492 13.945819c0.975232 3.998451 1.657894 4.193498 3.218265 14.140865 1.316563 9.752321-1.365325 28.379253-13.360679 48.956649-15.701236 27.013928-81.5294 1.950464-104.008499-17.602939-5.705108-4.87616 0 0-7.216717-6.290247-134.582024-114.882336-255.949654-227.716686-389.946539-343.427969-3.218266-2.779411-6.436532-5.753869-9.996128-8.191949-23.795662-17.066561-48.273987-15.847521-71.386987 3.998451-92.647046 80.01779-185.342853 160.230627-278.03866 240.248418-45.397052 39.204329-90.452773 79.140082-136.386203 117.661748-3.413312 2.779411-5.753869 4.534829-10.288698 7.31424-7.801856 4.729875-7.60681 5.412538-14.872289 8.728327-20.967489 9.606036-45.592099 20.041019-68.510052-5.753869-12.873063-14.28715-28.720584-51.053398-4.87616-85.77166l1.462848-1.414086z" p-id="1282"></path></svg>