<?xml version="1.0" encoding="UTF-8"?>
<svg width="30px" height="36px" viewBox="0 0 30 36" version="1.1" xmlns="http://www.w3.org/2000/svg" xmlns:xlink="http://www.w3.org/1999/xlink">
    <!-- Generator: Sketch 46.2 (44496) - http://www.bohemiancoding.com/sketch -->
    <title>密码</title>
    <desc>Created with Sketch.</desc>
    <defs></defs>
    <g id="Page-1" stroke="none" stroke-width="1" fill="none" fill-rule="evenodd">
        <g id="首页-下拉" transform="translate(-460.000000, -614.000000)" fill-rule="nonzero" fill="#818181">
            <g id="密码" transform="translate(460.000000, 614.000000)">
                <path d="M26.5421633,13.6216216 L3.57660357,13.6216216 C1.69418064,13.6216216 2.80367743e-13,15.2416216 2.80367743e-13,17.0416216 L2.80367743e-13,31.6216216 C2.80367743e-13,33.6016216 1.69418064,35.2216216 3.57660357,35.2216216 L26.353921,35.2216216 C28.4245862,35.2216216 29.9305246,33.6016216 29.9305246,31.8016216 L29.9305246,17.0416216 C30.1187669,15.2416216 28.4245862,13.6216216 26.5421633,13.6216216 Z M17,25.49655 L17,29.3816459 L13,29.3816459 C13,28.2863768 13,27.7133369 13,27.6625262 C13,27.1811982 13,26.4592061 13,25.49655 C11.8,24.9439444 11,23.6545314 11,22.3651183 C11,20.3388978 12.8,18.6810811 15,18.6810811 C17.2,18.6810811 19,20.3388978 19,22.3651183 C19,23.6545314 18.2,24.9439444 17,25.49655 Z M9.42682108,14.4 L5.66197522,14.4 L5.66197522,9 C5.66197522,3.96 9.80330567,0 15.0740899,0 C20.3448741,0 24.4862045,3.96 24.4862045,9 L24.4862045,14.4 L20.7213587,14.4 L20.7213587,9 C20.7213587,5.94 18.2742089,3.6 15.0740899,3.6 C11.8739709,3.6 9.42682108,5.94 9.42682108,9 L9.42682108,14.4 Z" id="Combined-Shape"></path>
            </g>
        </g>
    </g>
</svg>