<?xml version="1.0" encoding="UTF-8"?>
<svg width="67px" height="49px" viewBox="0 0 67 49" version="1.1" xmlns="http://www.w3.org/2000/svg" xmlns:xlink="http://www.w3.org/1999/xlink">
    <!-- Generator: Sketch 46.2 (44496) - http://www.bohemiancoding.com/sketch -->
    <title>加油卡充值</title>
    <desc>Created with Sketch.</desc>
    <defs></defs>
    <g id="Page-1" stroke="none" stroke-width="1" fill="none" fill-rule="evenodd">
        <g id="首页" transform="translate(-91.000000, -795.000000)" fill-rule="nonzero" fill="#578EFE">
            <g id="加油卡充值" transform="translate(91.000000, 795.000000)">
                <path d="M66.8607129,5.78970663 C66.8607129,2.68301364 64.3534131,0 61.1497435,0 L5.71103512,0 C2.50729975,0 7.10542736e-15,2.54180941 7.10542736e-15,5.78970663 L7.10542736e-15,8.75512872 L66.8606471,8.75512872 L66.8606471,5.78970663 L66.8607129,5.78970663 Z M0,15.6743358 L0,43.21036 C0,46.317053 2.50729975,49 5.71103512,49 L61.2889649,49 C64.3534131,49 67,46.4582573 67,43.21036 L67,15.6743358 L0,15.6743358 Z M29.3561724,27.9477131 L6.22019958,27.9477131 C5.13142902,27.9477131 5.225686,27.2178996 5.225686,26.3838833 C5.225686,25.5498178 5.13149327,24.8200536 6.22019958,24.8200536 L29.3561724,24.8200536 C30.4450072,24.8200536 30.350686,25.5498178 30.350686,26.3838833 C30.350686,27.2178996 30.4450072,27.9477131 29.3561724,27.9477131 Z M23.3200773,35.2455855 L5.97093564,35.2455855 C5.15449128,35.2455855 5.22517245,34.515772 5.22517245,33.6817557 C5.22517245,32.8476902 5.15453946,32.1179259 5.97093564,32.1179259 L23.3200773,32.1179259 C24.1365699,32.1179259 24.0658405,32.8476902 24.0658405,33.6817557 C24.0658405,34.515772 24.1365699,35.2455855 23.3200773,35.2455855 Z M48.3863846,44.8297872 L48.3863846,40.393074 L42.8872982,40.393074 L42.8872982,38.2026715 L48.3863846,38.2026715 L48.3863846,35.105694 L42.8872982,35.105694 L42.8872982,32.9437187 L47.5968122,32.9437187 L41.875,22.9361703 L44.8952103,22.9361703 C47.5506873,27.8743812 49.1874881,31.0504046 49.7600791,32.3762062 L49.7666261,32.3910434 L49.8549899,32.3910434 L49.8607767,32.3745289 C50.0546534,31.8296377 50.5928618,30.7147396 51.4604495,29.0611001 L54.7251809,22.9361702 L57.578125,22.9361702 L51.8219302,32.9066042 L51.8006841,32.9437187 L56.3712743,32.9437187 L56.3712743,35.105694 L51.0669516,35.105694 L51.0669516,38.2026715 L56.3712743,38.2026715 L56.3712743,40.393074 L51.0669516,40.393074 L51.0669516,44.8297872 L48.3863846,44.8297872 Z" id="Shape"></path>
            </g>
        </g>
    </g>
</svg>