<?xml version="1.0" encoding="UTF-8"?>
<svg width="30px" height="28px" viewBox="0 0 30 28" version="1.1" xmlns="http://www.w3.org/2000/svg" xmlns:xlink="http://www.w3.org/1999/xlink">
    <!-- Generator: Sketch 46.2 (44496) - http://www.bohemiancoding.com/sketch -->
    <title>Oval</title>
    <desc>Created with Sketch.</desc>
    <defs></defs>
    <g id="Page-1" stroke="none" stroke-width="1" fill="none" fill-rule="evenodd">
        <g id="玩家充卡-查询" transform="translate(-48.000000, -504.000000)" fill-rule="nonzero" fill="#C7C7C7">
            <path d="M72.0502525,524.221825 L77.7071068,529.87868 L77.7071068,529.87868 C78.0976311,530.269204 78.0976311,530.902369 77.7071068,531.292893 L77.7071068,531.292893 L77.7071068,531.292893 C77.3165825,531.683418 76.6834175,531.683418 76.2928932,531.292893 L70.636039,525.636039 L70.636039,525.636039 C70.2455147,525.245515 70.2455147,524.61235 70.636039,524.221825 L70.636039,524.221825 L70.636039,524.221825 C71.0265633,523.831301 71.6597282,523.831301 72.0502525,524.221825 Z M61,530 C53.8202983,530 48,524.179702 48,517 C48,509.820298 53.8202983,504 61,504 C68.1797017,504 74,509.820298 74,517 C74,524.179702 68.1797017,530 61,530 Z M61,528 C67.0751322,528 72,523.075132 72,517 C72,510.924868 67.0751322,506 61,506 C54.9248678,506 50,510.924868 50,517 C50,523.075132 54.9248678,528 61,528 Z" id="Oval"></path>
        </g>
    </g>
</svg>