<?xml version="1.0" standalone="no"?><!DOCTYPE svg PUBLIC "-//W3C//DTD SVG 1.1//EN" "http://www.w3.org/Graphics/SVG/1.1/DTD/svg11.dtd"><svg t="1513147160170" class="icon" style="" viewBox="0 0 1024 1024" version="1.1" xmlns="http://www.w3.org/2000/svg" p-id="1368" xmlns:xlink="http://www.w3.org/1999/xlink" width="200" height="200"><defs><style type="text/css"></style></defs><path d="M1019.769018 682.860018c-2.115491 12.419979-5.80054 25.112925-10.918663 37.874113a167.089667 167.089667 0 0 1-18.629969 34.666755c-7.267735 10.338609-15.456733 17.606344-24.157542 22.007931-8.803172 4.435707-16.446236 6.61944-23.099797 6.619439-6.585319 0-13.853054-1.398954-21.871447-4.435707a235.843124 235.843124 0 0 0-27.433141-6.005264 131.433408 131.433408 0 0 0-33.57489-1.091867 162.312752 162.312752 0 0 0-33.950218 7.097131 65.853187 65.853187 0 0 0-29.002699 18.66409c-17.606344 18.357002-27.979074 39.238946-30.879344 62.714072-2.968512 22.860951 0.443571 46.06311 9.96328 67.081537 7.233614 14.671954 6.141748 29.275666-3.30972 43.98174-4.367465 5.834661-11.498717 11.942288-20.881943 18.084035a241.234214 241.234214 0 0 1-31.254673 17.128653c-11.328113 5.118123-23.304522 9.14438-35.758622 12.078771a150.472827 150.472827 0 0 1-32.994835 4.333345 28.115558 28.115558 0 0 1-18.595849-7.677185 44.015861 44.015861 0 0 1-12.112892-16.480357 148.323215 148.323215 0 0 0-42.241578-58.824298 100.963513 100.963513 0 0 0-67.559228-24.771717c-24.87408 0-47.393822 8.257239-67.456866 24.771717-20.199527 16.514478-34.291426 35.758622-42.309819 57.732431-3.104995 8.154877-8.939655 14.94492-16.514478 19.278265a48.690414 48.690414 0 0 1-24.089301 5.971144c-10.236247 0-21.769085-1.808404-34.564393-5.561694a323.806604 323.806604 0 0 1-38.454167-13.648329 183.467662 183.467662 0 0 1-34.564393-19.346506 95.708907 95.708907 0 0 1-23.065676-21.939689 33.813735 33.813735 0 0 1-6.073506-18.084036c-0.40945-6.994769 2.388458-16.719203 8.257239-29.173303 8.052514-16.889807 11.123388-36.133951 9.383226-57.766553-1.842524-21.632601-11.19163-41.627403-28.081437-59.916164a70.971311 70.971311 0 0 0-37.259938-21.427876 150.370464 150.370464 0 0 0-41.729766-3.855653c-15.388491 0.682416-31.11819 3.685049-47.223218 8.837293-10.236247 2.90027-20.472493 2.115491-30.776982-2.286095-8.018393-2.866149-15.524974-9.656193-22.519742-20.199527a235.774883 235.774883 0 0 1-18.698211-35.246809 219.601613 219.601613 0 0 1-12.624704-39.580154c-2.90027-13.545966-3.650928-24.703475-2.149612-33.540769 2.149612-16.139149 9.451468-26.375396 21.939689-30.776982 21.939689-8.803172 41.627403-23.270401 59.267868-43.469927 17.572224-20.199527 26.307154-42.651028 26.307154-67.62747a95.879511 95.879511 0 0 0-26.307154-67.115658A163.165773 163.165773 0 0 0 22.860951 400.169005c-6.380594-2.047249-11.908167-7.335977-16.241511-15.832062A55.651061 55.651061 0 0 1 0 358.575722c0-9.55383 1.501316-20.165406 4.401586-31.937089 2.90027-11.703442 6.721802-23.065676 11.498717-34.120823 4.776915-10.918663 10.338609-21.018427 16.480357-30.231048 6.24411-9.076139 13.000033-15.900303 20.30189-20.336011a25.624738 25.624738 0 0 1 17.060411-4.333344c5.493452 0.682416 11.498717 2.115491 18.084036 4.333344 21.939689 8.871414 44.80064 11.566959 68.651094 8.257239a111.643331 111.643331 0 0 0 63.123522-31.254673A79.842724 79.842724 0 0 0 238.845757 186.470294c3.958015-12.86355 6.585319-25.522375 7.677185-37.942354a166.680217 166.680217 0 0 0 0-34.086702c-0.682416-7.335977-1.637799-14.671954-2.729666-21.939689a113.895305 113.895305 0 0 1-3.855653-15.38849 24.430509 24.430509 0 0 1 1.569558-15.456733c4.435707-10.236247 12.283496-19.210023 23.64573-26.921329A186.606778 186.606778 0 0 1 301.866915 15.490853c13.238879-5.118123 26.034187-8.939655 38.488288-11.532838 12.351738-2.593182 22.349139-3.889774 29.582753-3.889773a28.559128 28.559128 0 0 1 22.587984 9.349105c5.459332 6.24411 9.212622 12.692946 11.430476 19.244144 8.086635 19.824198 21.257272 37.191696 39.511912 52.2731 18.357002 15.013162 39.989604 22.587984 64.829563 22.587984 25.590617 0 48.280964-7.165373 68.03692-21.496118A114.987171 114.987171 0 0 0 618.098697 27.637866c2.90027-5.868781 7.506581-11.942288 13.68245-18.118157 6.175869-6.24411 12.590583-9.314985 19.278265-9.314984 10.168005 0 21.359635 1.364833 33.472526 4.333344a204.724934 204.724934 0 0 1 35.622139 12.147013c11.874046 5.118123 22.656226 11.703442 32.414781 19.790077 9.929159 8.052514 17.742828 16.855686 23.679851 26.375396 3.650928 5.698177 4.811036 12.624704 3.275599 19.244144-1.501316 6.960648-2.90027 11.942288-4.401586 14.842557a117.102662 117.102662 0 0 0-8.769052 67.047416c3.650928 23.372763 14.330745 44.015861 31.766486 61.553964 17.606344 17.606344 39.238946 27.296658 64.829562 29.173303a142.010863 142.010863 0 0 0 71.380761-12.624704 33.301923 33.301923 0 0 1 21.393755-4.435707 33.950218 33.950218 0 0 1 21.359635 9.895038c10.952784 10.270368 20.608977 25.863583 29.03682 46.745527 8.461964 20.916064 14.12602 42.002732 17.02629 63.191763 1.501316 12.488221-0.511812 22.246776-5.937023 29.173303-5.527573 6.926527-11.225751 11.532838-17.128652 13.750691a128.976709 128.976709 0 0 0-58.107761 42.30982 107.105261 107.105261 0 0 0-24.123421 68.651095c0 24.976442 6.755923 46.779647 20.199526 65.443737 13.614208 18.698211 31.322915 32.073573 53.228483 40.160208 5.118123 2.90027 9.519709 5.834661 13.170638 8.769051 8.086635 6.585319 13.648329 15.013162 16.514478 25.28353 1.467195 8.803172 1.160108 19.448869-1.194229 31.868848z m-439.476192-9.11026a173.333778 173.333778 0 0 0 56.469961-38.215321 182.819366 182.819366 0 0 0 37.703509-56.504081c9.212622-21.393756 13.784812-44.357069 13.784812-68.651095 0-24.46463-4.57219-47.325581-13.784812-68.719336a177.15531 177.15531 0 0 0-37.703509-56.094632 176.404652 176.404652 0 0 0-56.469961-37.874113 174.050315 174.050315 0 0 0-68.924061-13.784812c-24.294026 0-47.154977 4.606311-68.514612 13.818933a177.428276 177.428276 0 0 0-93.661657 93.934624 172.17367 172.17367 0 0 0-13.818933 68.719336c0 24.362267 4.606311 47.223218 13.818933 68.651095a183.194695 183.194695 0 0 0 37.73763 56.504081 175.381027 175.381027 0 0 0 55.958148 38.215321c21.632601 9.246743 44.971244 13.955416 68.480491 13.784813 24.328146 0 47.359701-4.606311 68.924061-13.784813z" p-id="1369"></path></svg>