<?xml version="1.0" standalone="no"?><!DOCTYPE svg PUBLIC "-//W3C//DTD SVG 1.1//EN" "http://www.w3.org/Graphics/SVG/1.1/DTD/svg11.dtd"><svg t="1513041324817" class="icon" style="" viewBox="0 0 1177 1024" version="1.1" xmlns="http://www.w3.org/2000/svg" p-id="1699" xmlns:xlink="http://www.w3.org/1999/xlink" width="229.8828125" height="200"><defs><style type="text/css"></style></defs><path d="M714.070788 427.609777h95.96478c11.603138 0 10.579332-12.575754 10.579332-26.94317s1.023806-26.94317-10.579332-26.94317h-95.96478V281.034838c0-11.603138-12.575754-10.579332-26.960233-10.579332-14.350352 0-26.926106-1.023806-26.926107 10.579332v92.688599h-96.340175c-11.603138 0-10.579332 12.575754-10.579332 26.94317s-1.023806 26.94317 10.579332 26.94317h96.340175v99.633419c0 11.586075 12.575754 10.579332 26.94317 10.579333s26.94317 1.006743 26.94317-10.579333V427.609777zM453.085491 855.014793c4.641255 4.794826 8.702354 9.77735 12.183296 14.964636 3.463878 5.187285 6.347599 10.579332 8.702353 16.210267 5.443237 12.763452 8.13926 25.714602 8.139261 38.90464 0 13.172975-2.73015 25.731666-8.139261 37.676073-4.641255 11.193616-11.603138 21.960646-20.885649 32.318153a109.035374 109.035374 0 0 1-31.874503 20.953903 94.190182 94.190182 0 0 1-37.7102 7.763865c-13.957893 0-26.721345-2.405945-38.290357-7.200771a123.146838 123.146838 0 0 1-31.328474-21.568187c-9.282511-10.357507-16.244394-21.141601-20.902712-32.318153a103.250868 103.250868 0 0 1-6.978947-37.693136c0-13.138848 2.320628-26.107061 6.99601-38.904641 2.303564-5.579744 5.204349-10.954728 8.668227-16.159077a107.499665 107.499665 0 0 1 12.166232-14.964635c3.105546-3.190863 6.569424-5.972204 10.442825-8.378149l9.265447-7.200771c3.873401-2.405945 7.729738-4.402367 11.603138-5.972204 3.088482-0.801982 6.194028-1.808725 9.299574-3.003165 3.088482-1.194441 6.176965-1.996422 9.265448-2.405945 3.105546-0.409523 6.39879-0.819045 9.896794-1.19444a88.217979 88.217979 0 0 1 9.896795-0.580157c13.138848 0 25.885237 2.388881 38.273293 7.200771 11.603138 4.794826 22.0289 11.978534 31.31141 21.551123z m552.718911 0c9.282511 9.555526 16.619789 19.964223 21.977709 31.106649 4.641255 11.961471 6.978946 24.741986 6.978947 38.30742 0 6.39879-0.580157 12.968214-1.757534 19.759462-1.160314 6.791249-2.900785 12.985277-5.221413 18.547958a140.056706 140.056706 0 0 1-22.045963 32.35228 86.050922 86.050922 0 0 1-31.328473 20.322556 86.83584 86.83584 0 0 1-38.273294 8.395212 87.142982 87.142982 0 0 1-38.273293-8.395212c-12.370993-5.579744-22.421359-12.370993-30.185223-20.322556-9.265447-10.391634-16.244394-21.158664-20.885649-32.35228a91.818364 91.818364 0 0 1-8.139261-38.290356c0-6.381726 0.580157-12.780516 1.757534-19.145179 1.160314-6.381726 3.27618-12.780516 6.381727-19.162242a99.633419 99.633419 0 0 1 20.885649-31.140775c3.873401-4.794826 8.531719-8.992432 13.940829-12.575755 5.40911-3.583322 10.852347-6.552361 16.261457-8.958305 3.873401-1.603963 7.917436-3.003165 12.183296-4.163479 4.26586-1.194441 8.531719-1.996422 12.780515-2.423009 4.248796-0.443649 8.702354-0.648411 13.326546-0.614283l-0.034127-0.034127c6.194028 0 12.575754 0.59722 19.162242 1.808724 6.603551 1.194441 12.968214 3.003165 19.162242 5.392047a80.112845 80.112845 0 0 1 31.345537 21.58525z m153.843965-669.774101c4.231733 3.412688 7.627357 7.200771 10.186873 11.432504 5.101968 8.463466 7.217835 17.370581 6.381726 26.670155 0 3.378561-0.221825 6.552361-0.665474 9.504335-0.443649 2.934911-0.853172 5.716252-1.262695 8.258705-0.409523 2.559516-1.057933 5.119032-1.911105 7.64442l-15.305905 41.92487-24.213019 69.925972-26.738409 75.010877c-11.040045 32.198709-35.662587 88.047344-38.222103 95.674701-5.084905 14.384479-10.835284 26.89198-17.182883 37.488376-6.364663 10.613459-13.360673 18.872163-21.03922 24.776113-15.288841 11.85909-33.99037 17.797167-56.036333 17.797167H394.114247l14.333288 52.179995h639.128165l-31.80625 116.560351H380.0881c-5.119032 0-9.982112-0.426586-14.640431-1.262694a93.558835 93.558835 0 0 1-12.746388-3.1738 37.676073 37.676073 0 0 1-10.818221-5.733315 85.487829 85.487829 0 0 1-25.492777-26.687219 156.864193 156.864193 0 0 1-9.521399-16.517409 204.010475 204.010475 0 0 1-8.275768-19.076924 698.355361 698.355361 0 0 1-8.924178-36.839965l-6.364663-33.068944-12.746389-64.841068-16.551536-87.706075-19.111051-97.858822-53.357373-268.203132H41.566537L0.170634 0.853172h211.77434c15.288841 0 27.608644 2.13293 36.908218 6.364663 4.248796 2.559516 8.275768 5.084905 12.115042 7.64442 3.82221 2.559516 7.422596 5.528554 10.835283 8.907115 5.101968 7.610294 8.497593 14.828128 10.186873 21.602314l6.364663 20.339619c0.836109 3.395624 2.115866 9.743224 3.82221 19.076925v6.347599l5.101968 33.068944 6.364663 43.221691 789.781266-0.017064c22.08009 0 39.075275 2.969038 50.951429 8.907115 5.938077 2.559516 11.022981 5.528554 15.271778 8.907116z" p-id="1700"></path></svg>