<?xml version="1.0" encoding="UTF-8"?>
<svg width="35px" height="33px" viewBox="0 0 35 33" version="1.1" xmlns="http://www.w3.org/2000/svg" xmlns:xlink="http://www.w3.org/1999/xlink">
    <!-- Generator: Sketch 46.2 (44496) - http://www.bohemiancoding.com/sketch -->
    <title>统计</title>
    <desc>Created with Sketch.</desc>
    <defs></defs>
    <g id="Page-1" stroke="none" stroke-width="1" fill="none" fill-rule="evenodd">
        <g id="首页-下拉" transform="translate(-456.000000, -343.000000)" fill-rule="nonzero" fill="#818181">
            <g id="统计" transform="translate(456.000000, 343.000000)">
                <path d="M32.1052632,1.4283077 L32.1052632,26.3333846 C32.1052632,26.9038462 31.6804881,27.3690769 31.1583688,27.3690769 L25.4744744,27.3690769 C24.9510908,27.3690769 24.5263158,26.9038461 24.5263158,26.3333846 L24.5263158,1.4283077 C24.5263158,0.857846148 24.9510909,0.392615406 25.4744744,0.392615406 L31.1583688,0.392615406 C31.6804881,0.392615371 32.1052632,0.856461555 32.1052632,1.4283077 Z M14.1052632,26.3306154 L14.1052632,9.72907693 C14.1052632,9.15723078 14.5287033,8.692 15.0519996,8.692 L20.7349461,8.692 C21.2582423,8.692 21.6842105,9.15723078 21.6842105,9.72907693 L21.6842105,26.3306154 C21.6842105,26.9038461 21.2582423,27.3690769 20.7349461,27.3690769 L15.0519996,27.3690769 C14.5287033,27.3690769 14.1052632,26.9038461 14.1052632,26.3306154 Z M4.63110487,27.3690769 L10.3162635,27.3690769 C10.8371187,27.3690769 11.2631579,26.9038461 11.2631579,26.3306154 L11.2631579,18.0312307 C11.2631579,17.458 10.8371187,16.9927692 10.3162635,16.9927692 L4.63110487,16.9927692 C4.10898557,16.9927692 3.68421053,17.458 3.68421053,18.0312308 L3.68421053,26.3306154 C3.68421053,26.9038461 4.10898557,27.3690769 4.63110487,27.3690769 Z M0,30.2307692 L0,33 L35,33 L35,30.2307692 L0,30.2307692 Z" id="Shape"></path>
            </g>
        </g>
    </g>
</svg>