<?xml version="1.0" encoding="UTF-8"?>
<svg width="62px" height="62px" viewBox="0 0 62 62" version="1.1" xmlns="http://www.w3.org/2000/svg" xmlns:xlink="http://www.w3.org/1999/xlink">
    <!-- Generator: Sketch 46.2 (44496) - http://www.bohemiancoding.com/sketch -->
    <title>Shape</title>
    <desc>Created with Sketch.</desc>
    <defs></defs>
    <g id="Page-1" stroke="none" stroke-width="1" fill="none" fill-rule="evenodd" opacity="0.1">
        <g id="我的牌友圈" transform="translate(-659.000000, -408.000000)" fill-rule="nonzero" fill="#000000">
            <g id="返回顶部" transform="translate(659.000000, 408.000000)">
                <path d="M33.0241873,28.6010285 L45.016161,40.486541 C45.7020421,41.171153 46.8184229,41.171153 47.504304,40.486541 L47.504304,40.486541 C48.1974817,39.801929 48.1974817,38.6993433 47.504304,38.0147313 L31.8603784,22.4992609 C31.4955481,22.1317323 31.0066754,21.9803971 30.5250993,22.0020164 C30.0435233,21.9803971 29.5546506,22.1389388 29.1898202,22.4992609 L13.5385981,38.0147313 C12.852717,38.6993433 12.852717,39.801929 13.5385981,40.486541 C14.2244791,41.171153 15.34086,41.171153 16.0267411,40.486541 L29.0241873,27.5979959 L29.0241873,49 C29.0241873,50.1045695 29.9196178,51 31.0241873,51 L31.0241873,51 C32.1287568,51 33.0241873,50.1045695 33.0241873,49 L33.0241873,49 L33.0241873,28.6010285 Z M54.1955787,0 C58.4686606,0 61.9355007,3.47135417 61.9355007,7.75 L61.9355007,54.2419271 C61.9355007,58.5205729 58.4686606,61.9919271 54.1955787,61.9919271 L7.76410923,61.9919271 C3.49102731,61.9919271 0.0241872562,58.5205729 0.0241872562,54.2419271 L0.0241872562,7.75 C0.0241872562,3.47135417 3.49102731,0 7.76410923,0 L54.1955787,0 Z M16.0241873,13 C14.9196178,13 14.0241873,13.8954305 14.0241873,15 C14.0241873,16.1045695 14.9196178,17 16.0241873,17 L46.0241873,17 C47.1287568,17 48.0241873,16.1045695 48.0241873,15 C48.0241873,13.8954305 47.1287568,13 46.0241873,13 L16.0241873,13 Z" id="Shape"></path>
            </g>
        </g>
    </g>
</svg>