<?xml version="1.0" standalone="no"?><!DOCTYPE svg PUBLIC "-//W3C//DTD SVG 1.1//EN" "http://www.w3.org/Graphics/SVG/1.1/DTD/svg11.dtd"><svg t="1513740931471" class="icon" style="" viewBox="0 0 1099 1024" version="1.1" xmlns="http://www.w3.org/2000/svg" p-id="1389" xmlns:xlink="http://www.w3.org/1999/xlink" width="214.6484375" height="200"><defs><style type="text/css"></style></defs><path d="M1022.065778 450.37037l-75.624297 422.798223H153.41037L77.748148 450.37037C34.247111 443.354074 0.910222 406.452148 0.910222 361.509926c0-49.872593 40.96-90.263704 91.477334-90.263704 50.555259 0 91.515259 40.391111 91.515259 90.263704 0 22.148741-8.419556 42.211556-21.845334 57.912889l171.121778 98.986666 150.414222-296.846222a119.656296 119.656296 0 0 1-55.675259-100.845037C427.918222 54.234074 482.531556 0.379259 549.925926 0.379259c67.39437 0 122.007704 53.892741 122.007704 120.376889a119.656296 119.656296 0 0 1-55.67526 100.845037l150.414223 296.808296 171.121777-98.986666a88.860444 88.860444 0 0 1-21.845333-57.874963c0-49.872593 40.96-90.263704 91.515259-90.263704 50.517333 0 91.477333 40.391111 91.477334 90.263704 0 44.942222-33.336889 81.92-76.875852 88.860444zM946.441481 1023.620741H153.41037v-90.263704h793.031111v90.263704z" p-id="1390"></path></svg>